<svg xmlns="http://www.w3.org/2000/svg" stroke="#000" stroke-width="0" preserveAspectRatio="xMidYMid" viewBox="-25.6 -25.6 307.2 307.2">
  <g stroke="none">
    <path fill="#40B3E0" d="M128 0a128 128 0 1 0 0 256 128 128 0 1 0 0-256Z"/>
    <path fill="#FFF" d="M190.3 73.6 167.4 189s-3.2 8-12 4.2l-52.7-40.5-19.2-9.3-32.3-10.8s-5-1.8-5.4-5.6c-.5-3.9 5.6-6 5.6-6l128.3-50.3s10.6-4.6 10.6 3"/>
    <path fill="#D2E5F1" d="M98.6 187.6s-1.5-.1-3.4-6.2c-2-6-11.7-38-11.7-38L161 94s4.5-2.7 4.3 0c0 0 .8.5-1.6 2.7-2.4 2.3-60.9 54.8-60.9 54.8"/>
    <path fill="#B5CFE4" d="m122.9 168.1-20.9 19s-1.6 1.3-3.4.5l4-35.3"/>
  </g>
</svg>