<svg xmlns="http://www.w3.org/2000/svg" viewBox="-4.8 -4.8 57.6 57.6">
  <path fill="#67C15E" fill-rule="evenodd" d="M24 0C10.75 0 0 10.77 0 24c0 5.25 1.7 10.12 4.57 14.07l-2.99 8.91 9.22-2.94A23.8 23.8 0 0 0 24 48c13.24 0 24-10.77 24-24S37.24 0 24 0Zm-6.7 12.2c-.47-1.12-.83-1.17-1.53-1.2l-.8-.02a3.5 3.5 0 0 0-2.46.86c-.7.72-2.45 2.4-2.45 5.84s2.5 6.77 2.85 7.24c.35.46 4.9 7.63 11.94 10.55 5.52 2.29 7.15 2.08 8.41 1.8 1.83-.39 4.13-1.74 4.71-3.38.58-1.64.58-3.03.41-3.33-.17-.3-.63-.46-1.34-.82-.7-.35-4.13-2.04-4.78-2.27-.64-.24-1.24-.15-1.72.52-.68.95-1.34 1.9-1.88 2.49-.42.45-1.11.5-1.7.26-.77-.32-2.94-1.08-5.62-3.47a21.35 21.35 0 0 1-3.9-4.84c-.4-.7-.03-1.11.29-1.5.35-.43.7-.74 1.04-1.15a4 4 0 0 0 .78-1.1c.24-.46.07-.94-.1-1.3-.17-.35-1.58-3.8-2.16-5.19Z"/>
</svg>